<svg width="32" height="32" viewBox="0 0 32 32" fill="none" xmlns="http://www.w3.org/2000/svg">
  <!-- Circular white background -->
  <circle cx="16" cy="16" r="16" fill="#ffffff"/>
  
  <!-- Globe design (left side) -->
  <g transform="translate(8, 16)">
    <!-- Main circle outline -->
    <circle cx="0" cy="0" r="6" fill="none" stroke="black" stroke-width="0.6"/>
    
    <!-- Horizontal latitude lines -->
    <path d="M-5 0 L5 0" stroke="black" stroke-width="0.4"/>
    <path d="M-4 -2.5 L4 -2.5" stroke="black" stroke-width="0.2"/>
    <path d="M-4 2.5 L4 2.5" stroke="black" stroke-width="0.2"/>
    <path d="M-3 -4 L3 -4" stroke="black" stroke-width="0.2"/>
    <path d="M-3 4 L3 4" stroke="black" stroke-width="0.2"/>
    
    <!-- Vertical longitude lines -->
    <path d="M0 -6 Q-2.5 0 0 6" stroke="black" stroke-width="0.3" fill="none"/>
    <path d="M0 -6 Q2.5 0 0 6" stroke="black" stroke-width="0.3" fill="none"/>
    <path d="M0 -6 Q-4 0 0 6" stroke="black" stroke-width="0.2" fill="none"/>
    <path d="M0 -6 Q4 0 0 6" stroke="black" stroke-width="0.2" fill="none"/>
    
    <!-- Grid squares pattern -->
    <rect x="-4" y="-5" width="1" height="1" fill="black" opacity="0.7"/>
    <rect x="-2" y="-5" width="1" height="1" fill="black" opacity="0.5"/>
    <rect x="1" y="-5" width="1" height="1" fill="black" opacity="0.7"/>
    <rect x="3" y="-5" width="1" height="1" fill="black" opacity="0.5"/>
    
    <rect x="-5" y="-3" width="1" height="1" fill="black" opacity="0.6"/>
    <rect x="-3" y="-3" width="1" height="1" fill="black" opacity="0.8"/>
    <rect x="0" y="-3" width="1" height="1" fill="black" opacity="0.6"/>
    <rect x="2" y="-3" width="1" height="1" fill="black" opacity="0.8"/>
    <rect x="4" y="-3" width="1" height="1" fill="black" opacity="0.6"/>
    
    <rect x="-4" y="-1" width="1" height="1" fill="black" opacity="0.7"/>
    <rect x="-2" y="-1" width="1" height="1" fill="black" opacity="0.5"/>
    <rect x="1" y="-1" width="1" height="1" fill="black" opacity="0.7"/>
    <rect x="3" y="-1" width="1" height="1" fill="black" opacity="0.5"/>
    
    <rect x="-5" y="1" width="1" height="1" fill="black" opacity="0.6"/>
    <rect x="-3" y="1" width="1" height="1" fill="black" opacity="0.8"/>
    <rect x="0" y="1" width="1" height="1" fill="black" opacity="0.6"/>
    <rect x="2" y="1" width="1" height="1" fill="black" opacity="0.8"/>
    <rect x="4" y="1" width="1" height="1" fill="black" opacity="0.6"/>
    
    <rect x="-4" y="3" width="1" height="1" fill="black" opacity="0.7"/>
    <rect x="-1" y="3" width="1" height="1" fill="black" opacity="0.5"/>
    <rect x="1" y="3" width="1" height="1" fill="black" opacity="0.7"/>
    <rect x="3" y="3" width="1" height="1" fill="black" opacity="0.5"/>
  </g>
  
  <!-- "AL" Text (right side) -->
  <g transform="translate(24, 16)">
    <!-- Letter A -->
    <path d="M-6 4 L-4 -4 L-2 -4 L0 4 M-5 0 L-1 0" stroke="black" stroke-width="1.2" fill="none" stroke-linecap="round" stroke-linejoin="round"/>
    
    <!-- Letter L -->
    <path d="M2 -4 L2 4 L6 4" stroke="black" stroke-width="1.2" fill="none" stroke-linecap="round" stroke-linejoin="round"/>
  </g>
</svg>
