<svg width="32" height="32" viewBox="0 0 32 32" fill="none" xmlns="http://www.w3.org/2000/svg">
  <circle cx="16" cy="16" r="16" fill="#000000"/>
  <g transform="translate(4, 8) scale(0.6)">
    <!-- Globe pattern -->
    <circle cx="20" cy="12" r="10" fill="none" stroke="white" stroke-width="0.5"/>
    <!-- Horizontal lines -->
    <path d="M10 12 L30 12" stroke="white" stroke-width="0.3"/>
    <path d="M11 8 L29 8" stroke="white" stroke-width="0.3"/>
    <path d="M11 16 L29 16" stroke="white" stroke-width="0.3"/>
    <!-- Vertical curves -->
    <path d="M20 2 Q16 12 20 22" stroke="white" stroke-width="0.3" fill="none"/>
    <path d="M20 2 Q24 12 20 22" stroke="white" stroke-width="0.3" fill="none"/>
    <!-- Grid pattern -->
    <path d="M12 6 L28 6" stroke="white" stroke-width="0.2"/>
    <path d="M12 10 L28 10" stroke="white" stroke-width="0.2"/>
    <path d="M12 14 L28 14" stroke="white" stroke-width="0.2"/>
    <path d="M12 18 L28 18" stroke="white" stroke-width="0.2"/>
    <!-- Diagonal elements -->
    <rect x="14" y="4" width="1" height="1" fill="white"/>
    <rect x="16" y="5" width="1" height="1" fill="white"/>
    <rect x="18" y="4" width="1" height="1" fill="white"/>
    <rect x="22" y="6" width="1" height="1" fill="white"/>
    <rect x="24" y="8" width="1" height="1" fill="white"/>
    <rect x="26" y="10" width="1" height="1" fill="white"/>
    <rect x="24" y="14" width="1" height="1" fill="white"/>
    <rect x="22" y="16" width="1" height="1" fill="white"/>
    <rect x="18" y="18" width="1" height="1" fill="white"/>
    <rect x="16" y="19" width="1" height="1" fill="white"/>
    <rect x="14" y="18" width="1" height="1" fill="white"/>
  </g>
</svg>
